<svg width="30" height="31" viewBox="0 0 30 31" fill="none" xmlns="http://www.w3.org/2000/svg">
<path d="M7.5 2.70557L3.75 7.70557V25.2056C3.75 25.8686 4.01339 26.5045 4.48223 26.9733C4.95107 27.4422 5.58696 27.7056 6.25 27.7056H23.75C24.413 27.7056 25.0489 27.4422 25.5178 26.9733C25.9866 26.5045 26.25 25.8686 26.25 25.2056V7.70557L22.5 2.70557H7.5Z" stroke="#25282B" stroke-width="2" stroke-linecap="round" stroke-linejoin="round"/>
<path d="M3.75 7.70557H26.25" stroke="#25282B" stroke-width="2" stroke-linecap="round" stroke-linejoin="round"/>
<path d="M20 12.7056C20 14.0316 19.4732 15.3034 18.5355 16.2411C17.5979 17.1788 16.3261 17.7056 15 17.7056C13.6739 17.7056 12.4021 17.1788 11.4645 16.2411C10.5268 15.3034 10 14.0316 10 12.7056" stroke="#25282B" stroke-width="2" stroke-linecap="round" stroke-linejoin="round"/>
</svg>
