<svg width="93" height="31" viewBox="0 0 93 31" fill="none" xmlns="http://www.w3.org/2000/svg">
<path d="M10.2586 30.3986C7.48758 30.2976 5.22047 29.6019 3.44778 28.3098C3.10947 28.0629 2.30331 27.3228 2.03285 27.0107C1.314 26.1813 0.825279 25.3742 0.499305 24.4787C-0.503765 21.722 0.0124789 18.1046 1.97592 14.1346C3.65703 10.7358 6.25106 7.36488 10.7767 2.69615C11.4434 2.00915 13.4287 0 13.4415 0C13.4462 0 13.338 0.171964 13.2019 0.381371C12.0251 2.18983 11.0183 4.32001 10.4697 6.16418C9.58862 9.12328 9.6949 11.6627 10.781 13.6318C11.5302 14.9884 12.8147 16.1634 14.259 16.8129C16.7876 17.9496 20.4895 18.0437 25.0105 17.0881C25.3217 17.0219 40.7455 13.2652 59.2857 8.73973C77.8258 4.21378 92.9976 0.513717 93 0.516763C93.0052 0.520689 49.9259 17.4342 27.5627 26.2087C24.0212 27.598 23.0741 27.9489 21.4091 28.4852C17.1529 29.8566 13.3404 30.5109 10.2586 30.3986V30.3986Z" fill="#0A0A0A"/>
</svg>
